# xmcd
#
# Track frame offsets: 
#        150
#        13628
#        25256
#        40338
#        54864
#        68680
#        84040
#        99932
#        119464
#        133756
#        144335
#        156760
#        172104
#        187936
#        204002
#        220840
#
# Disc length: 3173 seconds
#
# Revision: 0
# Processed by: cddbd v1.5.2PL0 Copyright (c) Steve Scherf et al.
# Submitted via: ExactAudioCopy v1.0b1
#
DISCID=c80c6310
DTITLE=Thom Shepherd - Turning Points
DYEAR=2008
DGENRE=Country
TTITLE0=Priceless
TTITLE1=Take a Vacation a Day
TTITLE2=The Only Way He Knew How
TTITLE3=Cheaper To Keep Her
TTITLE4=Ain't My Day To Save The World
TTITLE5=Me, You and Emmy Lou
TTITLE6=Rather Be Happy Than Right
TTITLE7=Miss That Mississippi
TTITLE8=Wal-Mart Flowers
TTITLE9=Your Secet's Safe With Me
TTITLE10=Dogcatcher
TTITLE11=Make It Count
TTITLE12=Painting Coconuts In Paradise
TTITLE13=The Wheels Turn Slow
TTITLE14=Dying For A Living
TTITLE15=Djibouti
EXTD=
EXTT0=
EXTT1=
EXTT2=
EXTT3=
EXTT4=
EXTT5=
EXTT6=
EXTT7=
EXTT8=
EXTT9=
EXTT10=
EXTT11=
EXTT12=
EXTT13=
EXTT14=
EXTT15=
PLAYORDER=
